<?xml version="1.0" encoding="UTF-8"?>
<svg xmlns="http://www.w3.org/2000/svg" xmlns:xlink="http://www.w3.org/1999/xlink" width="375pt" height="374.999991pt" viewBox="0 0 375 374.999991" version="1.2">
<g id="surface1">
<path style=" stroke:none;fill-rule:nonzero;fill:rgb(100%,94.898987%,1.179504%);fill-opacity:1;" d="M 375 187.5 C 375 190.570312 374.925781 193.636719 374.773438 196.699219 C 374.625 199.765625 374.398438 202.824219 374.097656 205.878906 C 373.796875 208.933594 373.421875 211.976562 372.96875 215.011719 C 372.519531 218.046875 371.996094 221.070312 371.398438 224.078125 C 370.796875 227.089844 370.125 230.082031 369.378906 233.058594 C 368.636719 236.035156 367.816406 238.992188 366.925781 241.929688 C 366.035156 244.863281 365.074219 247.777344 364.039062 250.667969 C 363.003906 253.554688 361.902344 256.417969 360.726562 259.253906 C 359.554688 262.089844 358.308594 264.890625 356.996094 267.667969 C 355.6875 270.441406 354.308594 273.179688 352.859375 275.886719 C 351.414062 278.59375 349.902344 281.261719 348.324219 283.894531 C 346.746094 286.527344 345.105469 289.117188 343.402344 291.667969 C 341.695312 294.222656 339.929688 296.730469 338.101562 299.195312 C 336.273438 301.660156 334.386719 304.078125 332.4375 306.449219 C 330.492188 308.820312 328.488281 311.144531 326.429688 313.417969 C 324.367188 315.691406 322.253906 317.914062 320.082031 320.082031 C 317.914062 322.253906 315.691406 324.367188 313.417969 326.429688 C 311.144531 328.488281 308.820312 330.492188 306.449219 332.4375 C 304.078125 334.386719 301.660156 336.273438 299.195312 338.101562 C 296.730469 339.929688 294.222656 341.695312 291.667969 343.402344 C 289.117188 345.105469 286.527344 346.746094 283.894531 348.324219 C 281.261719 349.902344 278.59375 351.414062 275.886719 352.859375 C 273.179688 354.308594 270.441406 355.6875 267.667969 356.996094 C 264.890625 358.308594 262.089844 359.554688 259.253906 360.726562 C 256.417969 361.902344 253.554688 363.003906 250.667969 364.039062 C 247.777344 365.074219 244.863281 366.035156 241.929688 366.925781 C 238.992188 367.816406 236.035156 368.636719 233.058594 369.378906 C 230.082031 370.125 227.089844 370.796875 224.078125 371.398438 C 221.070312 371.996094 218.046875 372.519531 215.011719 372.96875 C 211.976562 373.421875 208.933594 373.796875 205.878906 374.097656 C 202.824219 374.398438 199.765625 374.625 196.699219 374.773438 C 193.636719 374.925781 190.570312 375 187.5 375 C 184.429688 375 181.363281 374.925781 178.300781 374.773438 C 175.234375 374.625 172.175781 374.398438 169.121094 374.097656 C 166.066406 373.796875 163.023438 373.421875 159.988281 372.96875 C 156.953125 372.519531 153.929688 371.996094 150.921875 371.398438 C 147.910156 370.796875 144.917969 370.125 141.941406 369.378906 C 138.964844 368.636719 136.007812 367.816406 133.070312 366.925781 C 130.136719 366.035156 127.222656 365.074219 124.332031 364.039062 C 121.445312 363.003906 118.582031 361.902344 115.746094 360.726562 C 112.910156 359.554688 110.105469 358.308594 107.332031 356.996094 C 104.558594 355.6875 101.820312 354.308594 99.113281 352.859375 C 96.40625 351.414062 93.738281 349.902344 91.105469 348.324219 C 88.472656 346.746094 85.882812 345.105469 83.332031 343.402344 C 80.777344 341.695312 78.269531 339.929688 75.804688 338.101562 C 73.339844 336.273438 70.921875 334.386719 68.550781 332.4375 C 66.179688 330.492188 63.855469 328.488281 61.582031 326.429688 C 59.308594 324.367188 57.085938 322.253906 54.917969 320.082031 C 52.746094 317.914062 50.632812 315.691406 48.570312 313.417969 C 46.511719 311.144531 44.507812 308.820312 42.558594 306.449219 C 40.613281 304.078125 38.726562 301.660156 36.898438 299.195312 C 35.070312 296.730469 33.304688 294.222656 31.597656 291.667969 C 29.894531 289.117188 28.253906 286.527344 26.675781 283.894531 C 25.097656 281.261719 23.585938 278.59375 22.140625 275.886719 C 20.691406 273.179688 19.3125 270.441406 18.003906 267.667969 C 16.691406 264.890625 15.445312 262.089844 14.273438 259.253906 C 13.097656 256.417969 11.996094 253.554688 10.960938 250.667969 C 9.925781 247.777344 8.964844 244.863281 8.074219 241.929688 C 7.183594 238.992188 6.363281 236.035156 5.621094 233.058594 C 4.875 230.082031 4.203125 227.089844 3.601562 224.078125 C 3.003906 221.070312 2.480469 218.046875 2.03125 215.011719 C 1.578125 211.976562 1.203125 208.933594 0.902344 205.878906 C 0.601562 202.824219 0.375 199.765625 0.226562 196.699219 C 0.0742188 193.636719 0 190.570312 0 187.5 C 0 184.429688 0.0742188 181.363281 0.226562 178.300781 C 0.375 175.234375 0.601562 172.175781 0.902344 169.121094 C 1.203125 166.066406 1.578125 163.023438 2.03125 159.988281 C 2.480469 156.953125 3.003906 153.929688 3.601562 150.921875 C 4.203125 147.910156 4.875 144.917969 5.621094 141.941406 C 6.363281 138.964844 7.183594 136.007812 8.074219 133.070312 C 8.964844 130.136719 9.925781 127.222656 10.960938 124.332031 C 11.996094 121.445312 13.097656 118.582031 14.273438 115.746094 C 15.445312 112.910156 16.691406 110.105469 18.003906 107.332031 C 19.3125 104.558594 20.691406 101.820312 22.140625 99.113281 C 23.585938 96.40625 25.097656 93.738281 26.675781 91.105469 C 28.253906 88.472656 29.894531 85.882812 31.597656 83.332031 C 33.304688 80.777344 35.070312 78.269531 36.898438 75.804688 C 38.726562 73.339844 40.613281 70.921875 42.558594 68.550781 C 44.507812 66.179688 46.511719 63.855469 48.570312 61.582031 C 50.632812 59.308594 52.746094 57.085938 54.917969 54.917969 C 57.085938 52.746094 59.308594 50.632812 61.582031 48.570312 C 63.855469 46.511719 66.179688 44.507812 68.550781 42.558594 C 70.921875 40.613281 73.339844 38.726562 75.804688 36.898438 C 78.269531 35.070312 80.777344 33.304688 83.332031 31.597656 C 85.882812 29.894531 88.472656 28.253906 91.105469 26.675781 C 93.738281 25.097656 96.40625 23.585938 99.113281 22.140625 C 101.820312 20.691406 104.558594 19.3125 107.332031 18.003906 C 110.105469 16.691406 112.910156 15.445312 115.746094 14.273438 C 118.582031 13.097656 121.445312 11.996094 124.332031 10.960938 C 127.222656 9.925781 130.136719 8.964844 133.070312 8.074219 C 136.007812 7.183594 138.964844 6.363281 141.941406 5.617188 C 144.917969 4.875 147.910156 4.203125 150.921875 3.601562 C 153.929688 3.003906 156.953125 2.480469 159.988281 2.03125 C 163.023438 1.578125 166.066406 1.203125 169.121094 0.902344 C 172.175781 0.601562 175.234375 0.375 178.300781 0.226562 C 181.363281 0.0742188 184.429688 0 187.5 0 C 190.570312 0 193.636719 0.0742188 196.699219 0.226562 C 199.765625 0.375 202.824219 0.601562 205.878906 0.902344 C 208.933594 1.203125 211.976562 1.578125 215.011719 2.03125 C 218.046875 2.480469 221.070312 3.003906 224.078125 3.601562 C 227.089844 4.203125 230.082031 4.875 233.058594 5.617188 C 236.035156 6.363281 238.992188 7.183594 241.929688 8.074219 C 244.863281 8.964844 247.777344 9.925781 250.667969 10.960938 C 253.554688 11.996094 256.417969 13.097656 259.253906 14.273438 C 262.089844 15.445312 264.890625 16.691406 267.667969 18.003906 C 270.441406 19.3125 273.179688 20.691406 275.886719 22.140625 C 278.59375 23.585938 281.261719 25.097656 283.894531 26.675781 C 286.527344 28.253906 289.117188 29.894531 291.667969 31.597656 C 294.222656 33.304688 296.730469 35.070312 299.195312 36.898438 C 301.660156 38.726562 304.078125 40.613281 306.449219 42.558594 C 308.820312 44.507812 311.144531 46.511719 313.417969 48.570312 C 315.691406 50.632812 317.914062 52.746094 320.082031 54.917969 C 322.253906 57.085938 324.367188 59.308594 326.429688 61.582031 C 328.488281 63.855469 330.492188 66.179688 332.4375 68.550781 C 334.386719 70.921875 336.273438 73.339844 338.101562 75.804688 C 339.929688 78.269531 341.695312 80.777344 343.402344 83.332031 C 345.105469 85.882812 346.746094 88.472656 348.324219 91.105469 C 349.902344 93.738281 351.414062 96.40625 352.859375 99.113281 C 354.308594 101.820312 355.6875 104.558594 356.996094 107.332031 C 358.308594 110.105469 359.554688 112.910156 360.726562 115.746094 C 361.902344 118.582031 363.003906 121.445312 364.039062 124.332031 C 365.074219 127.222656 366.035156 130.136719 366.925781 133.070312 C 367.816406 136.007812 368.636719 138.964844 369.378906 141.941406 C 370.125 144.917969 370.796875 147.910156 371.398438 150.921875 C 371.996094 153.929688 372.519531 156.953125 372.96875 159.988281 C 373.421875 163.023438 373.796875 166.066406 374.097656 169.121094 C 374.398438 172.175781 374.625 175.234375 374.773438 178.300781 C 374.925781 181.363281 375 184.429688 375 187.5 Z M 375 187.5 "/>
<path style=" stroke:none;fill-rule:nonzero;fill:rgb(0.389099%,0.389099%,0.389099%);fill-opacity:1;" d="M 128.289062 208.550781 C 123.683594 214.691406 117.761719 221.273438 109.867188 226.316406 C 102.191406 231.140625 93.421875 235.085938 83.113281 235.085938 C 73.683594 235.085938 65.570312 230.042969 61.183594 225.878906 C 54.605469 219.738281 51.097656 210.527344 50 202.191406 C 46.710938 175.878906 62.9375 141.226562 87.9375 126.097656 C 93.640625 122.585938 100 120.832031 105.921875 120.832031 C 117.984375 120.832031 126.972656 129.386719 128.070312 139.691406 C 129.167969 148.902344 125.4375 156.796875 115.351562 162.0625 C 110.085938 164.691406 107.457031 164.472656 106.796875 163.378906 C 106.359375 162.5 106.578125 161.183594 107.675781 160.308594 C 117.324219 152.191406 117.542969 145.613281 116.449219 136.402344 C 115.789062 130.484375 111.84375 126.535156 107.457031 126.535156 C 88.597656 126.535156 61.402344 168.859375 65.132812 199.5625 C 66.667969 211.621094 73.902344 225.4375 89.253906 225.4375 C 94.296875 225.4375 99.5625 224.121094 104.386719 221.710938 C 114.914062 216.449219 119.738281 212.5 126.097656 203.726562 C 126.972656 202.632812 127.632812 201.316406 128.726562 200 C 129.386719 198.902344 130.261719 198.683594 131.140625 198.683594 C 132.015625 198.683594 132.894531 199.5625 133.113281 200.65625 C 133.332031 201.535156 132.894531 203.070312 131.796875 204.386719 C 130.261719 205.921875 129.386719 207.238281 128.289062 208.550781 Z M 128.289062 208.550781 "/>
<path style=" stroke:none;fill-rule:nonzero;fill:rgb(0.389099%,0.389099%,0.389099%);fill-opacity:1;" d="M 157.015625 223.902344 C 152.191406 223.902344 149.5625 221.273438 148.683594 217.542969 C 145.613281 221.710938 141.449219 223.902344 137.0625 223.902344 C 129.824219 223.902344 122.808594 217.761719 121.929688 209.429688 C 120.175781 194.957031 132.457031 176.535156 151.097656 176.535156 C 158.992188 176.535156 165.570312 179.605469 166.226562 185.964844 C 167.105469 193.859375 160.527344 195.394531 157.894531 195.394531 C 155.703125 195.394531 152.191406 194.738281 151.972656 192.761719 C 151.753906 190.570312 156.796875 191.886719 156.140625 186.84375 C 155.703125 183.773438 152.414062 182.675781 149.34375 182.675781 C 137.9375 182.675781 131.796875 198.464844 132.894531 208.332031 C 133.332031 212.71875 135.746094 217.105469 139.914062 217.105469 C 143.203125 217.105469 148.027344 212.28125 149.78125 205.484375 C 150.878906 200.65625 155.484375 197.585938 158.773438 197.585938 C 160.527344 197.585938 161.621094 198.464844 161.84375 200.21875 C 161.84375 200.878906 161.84375 201.535156 161.621094 202.632812 C 161.183594 204.605469 159.648438 211.621094 159.648438 212.9375 C 159.648438 214.253906 160.527344 215.789062 162.5 215.789062 C 164.914062 215.789062 176.097656 209.210938 182.457031 200.4375 C 182.894531 199.5625 183.992188 199.121094 185.085938 199.121094 C 185.964844 199.121094 186.84375 199.5625 187.0625 200.65625 C 187.28125 201.753906 186.84375 203.289062 185.308594 205.042969 C 178.070312 215.132812 162.5 223.902344 157.015625 223.902344 Z M 157.015625 223.902344 "/>
<path style=" stroke:none;fill-rule:nonzero;fill:rgb(0.389099%,0.389099%,0.389099%);fill-opacity:1;" d="M 313.816406 218.640625 C 314.472656 223.246094 316.449219 226.316406 318.421875 227.851562 C 319.078125 228.507812 319.515625 229.167969 319.515625 229.824219 C 319.738281 231.140625 318.640625 232.238281 317.105469 232.238281 C 316.667969 232.238281 316.007812 232.238281 315.570312 232.015625 C 307.457031 228.726562 304.167969 223.246094 303.070312 217.984375 C 300 221.929688 295.832031 224.121094 291.449219 224.121094 C 284.210938 224.121094 277.191406 217.761719 276.097656 209.648438 C 274.34375 195.394531 287.28125 176.753906 305.484375 176.753906 C 313.15625 176.753906 319.957031 179.824219 320.613281 185.964844 C 321.710938 194.078125 314.691406 195.613281 312.28125 195.613281 C 309.867188 195.613281 306.359375 194.957031 306.140625 192.984375 C 305.921875 191.007812 310.964844 192.105469 310.527344 187.0625 C 310.085938 183.992188 306.796875 182.675781 303.726562 182.675781 C 293.203125 182.675781 285.964844 196.710938 287.28125 208.113281 C 287.9375 212.71875 289.914062 217.105469 294.078125 217.105469 C 297.367188 217.105469 302.414062 212.28125 304.167969 205.484375 C 305.261719 200.878906 309.867188 197.585938 313.15625 197.585938 C 314.691406 197.585938 316.007812 198.464844 316.226562 200.21875 C 316.449219 201.097656 316.007812 203.289062 314.253906 210.746094 C 313.597656 213.816406 313.597656 216.449219 313.816406 218.640625 Z M 313.816406 218.640625 "/>
<path style=" stroke:none;fill-rule:nonzero;fill:rgb(0.389099%,0.389099%,0.389099%);fill-opacity:1;" d="M 215.570312 215.789062 C 218.203125 215.789062 226.316406 212.71875 232.894531 203.726562 C 233.550781 202.851562 234.429688 202.414062 235.527344 202.414062 C 236.621094 202.414062 237.5 202.851562 237.71875 204.167969 C 237.9375 205.042969 237.28125 206.578125 235.964844 208.332031 C 228.507812 218.640625 216.007812 223.902344 210.527344 223.902344 C 204.824219 223.902344 201.753906 220.394531 201.097656 215.132812 C 200.878906 213.378906 200.878906 211.402344 201.316406 209.210938 C 203.289062 197.585938 207.457031 190.351562 207.238281 188.15625 C 207.238281 187.5 206.796875 187.28125 206.359375 187.28125 C 202.632812 187.28125 189.914062 200.4375 187.9375 208.992188 L 186.402344 216.007812 C 185.527344 220.832031 180.703125 224.121094 177.191406 224.121094 C 175.65625 224.121094 174.34375 223.246094 174.121094 221.492188 C 174.121094 220.832031 174.121094 220.175781 174.34375 219.078125 C 174.34375 219.078125 180.703125 186.621094 180.921875 185.085938 C 181.578125 181.359375 182.894531 177.414062 190.789062 177.414062 C 192.324219 177.414062 193.640625 178.289062 193.859375 180.042969 C 193.859375 180.703125 193.859375 181.359375 193.640625 182.457031 L 191.449219 192.105469 C 198.246094 183.113281 208.773438 176.535156 215.132812 176.535156 C 217.761719 176.535156 219.957031 177.851562 220.175781 180.703125 C 220.394531 182.238281 219.957031 184.867188 218.859375 187.9375 C 216.667969 194.078125 214.035156 203.289062 212.5 211.402344 C 211.84375 213.15625 212.5 215.789062 215.570312 215.789062 Z M 215.570312 215.789062 "/>
<path style=" stroke:none;fill-rule:nonzero;fill:rgb(0.389099%,0.389099%,0.389099%);fill-opacity:1;" d="M 268.421875 201.753906 C 267.542969 201.753906 266.667969 201.753906 265.789062 201.535156 C 258.773438 211.84375 251.316406 218.859375 245.613281 222.148438 C 243.203125 223.464844 241.007812 224.121094 239.472656 224.121094 C 238.15625 224.121094 236.84375 223.902344 236.183594 222.808594 C 233.550781 218.640625 232.457031 209.867188 232.457031 200.878906 C 232.457031 194.296875 232.894531 188.816406 234.210938 184.867188 C 235.527344 180.703125 240.789062 176.753906 244.078125 176.753906 C 245.832031 176.753906 247.148438 177.632812 247.148438 179.605469 C 247.148438 180.261719 246.929688 180.921875 246.710938 181.796875 C 244.296875 188.816406 242.984375 195.175781 242.984375 201.753906 C 242.984375 205.484375 243.859375 211.183594 244.515625 214.253906 C 244.738281 214.914062 244.738281 215.570312 245.394531 215.570312 C 246.492188 215.570312 253.949219 208.332031 259.210938 199.5625 C 254.386719 196.492188 251.753906 191.007812 251.753906 184.210938 C 251.753906 172.808594 258.550781 167.105469 265.132812 167.105469 C 270.394531 167.105469 275 170.832031 275 178.507812 C 275 183.332031 273.027344 188.597656 270.394531 193.859375 C 270.394531 193.859375 271.492188 194.078125 271.929688 194.078125 C 276.097656 194.078125 279.167969 192.105469 280.921875 190.132812 C 282.238281 188.816406 283.332031 187.71875 284.429688 187.71875 C 285.308594 187.71875 285.527344 188.378906 285.527344 189.035156 C 285.527344 189.472656 285.308594 190.351562 284.867188 191.007812 C 281.359375 197.367188 274.121094 201.753906 268.421875 201.753906 Z M 258.773438 178.070312 C 258.773438 182.457031 260.964844 187.0625 263.816406 190.132812 C 264.914062 187.0625 265.570312 184.210938 265.570312 181.140625 C 265.570312 175.4375 263.378906 173.027344 261.621094 173.027344 C 259.429688 172.808594 258.773438 175.65625 258.773438 178.070312 Z M 258.773438 178.070312 "/>
</g>
</svg>
