<?xml version="1.0" encoding="UTF-8"?>
<svg xmlns="http://www.w3.org/2000/svg" xmlns:xlink="http://www.w3.org/1999/xlink" width="375pt" height="374.999991pt" viewBox="0 0 375 374.999991" version="1.2">
<defs>
<clipPath id="clip1">
  <path d="M 23.4375 3 L 351.9375 3 L 351.9375 371 L 23.4375 371 Z M 23.4375 3 "/>
</clipPath>
</defs>
<g id="surface1">
<g clip-path="url(#clip1)" clip-rule="nonzero">
<path style=" stroke:none;fill-rule:nonzero;fill:rgb(100%,94.898987%,1.179504%);fill-opacity:1;" d="M 347.761719 8.609375 C 344.84375 5.359375 340.6875 3.503906 336.324219 3.503906 L 39.050781 3.503906 C 34.6875 3.503906 30.53125 5.359375 27.613281 8.609375 C 24.695312 11.859375 23.316406 16.199219 23.789062 20.523438 L 57.59375 324.46875 C 58.269531 330.648438 62.644531 335.816406 68.628906 337.515625 L 183.449219 370.285156 C 184.832031 370.683594 186.261719 370.882812 187.671875 370.882812 C 189.085938 370.882812 190.511719 370.683594 191.894531 370.285156 L 306.714844 337.515625 C 312.703125 335.816406 317.0625 330.648438 317.753906 324.46875 L 351.570312 20.523438 C 352.058594 16.199219 350.679688 11.859375 347.761719 8.609375 Z M 272.359375 157.96875 L 265.515625 269.667969 L 188.179688 294.921875 L 110.84375 269.667969 L 107.910156 216.25 L 147.054688 216.25 L 148.039062 240.535156 L 188.179688 254.136719 L 228.320312 240.535156 L 231.253906 196.835938 L 145.105469 196.835938 L 143.15625 157.984375 L 233.21875 157.984375 L 236.148438 119.128906 L 101.050781 119.128906 L 98.117188 80.261719 L 277.257812 80.261719 Z M 272.359375 157.96875 "/>
</g>
</g>
</svg>
