<?xml version="1.0" encoding="UTF-8"?>
<svg xmlns="http://www.w3.org/2000/svg" xmlns:xlink="http://www.w3.org/1999/xlink" width="375pt" height="374.999991pt" viewBox="0 0 375 374.999991" version="1.2">
<defs>
<clipPath id="clip1">
  <path d="M 2 149 L 373 149 L 373 231.683594 L 2 231.683594 Z M 2 149 "/>
</clipPath>
</defs>
<g id="surface1">
<g clip-path="url(#clip1)" clip-rule="nonzero">
<path style=" stroke:none;fill-rule:nonzero;fill:rgb(100%,94.898987%,1.179504%);fill-opacity:1;" d="M 117.160156 231.867188 L 117.160156 150.9375 L 121.554688 150.9375 L 121.554688 163.667969 C 122.074219 163.101562 122.554688 162.503906 122.992188 161.871094 C 126.664062 154.265625 134.40625 149.464844 142.863281 149.558594 C 152.886719 149.261719 161.03125 152.964844 165.816406 161.871094 C 166.578125 163.25 167.25 164.667969 167.839844 166.128906 C 168.429688 167.585938 168.929688 169.074219 169.339844 170.59375 C 169.753906 172.109375 170.074219 173.648438 170.300781 175.203125 C 170.53125 176.761719 170.664062 178.324219 170.707031 179.898438 C 170.746094 181.46875 170.695312 183.039062 170.550781 184.605469 C 170.402344 186.171875 170.164062 187.722656 169.832031 189.261719 C 169.503906 190.796875 169.082031 192.308594 168.570312 193.796875 C 168.058594 195.285156 167.460938 196.738281 166.773438 198.152344 C 162.316406 208.132812 151.300781 213.097656 139.507812 211.273438 C 137.671875 211.117188 135.882812 210.738281 134.144531 210.136719 C 132.40625 209.53125 130.765625 208.726562 129.230469 207.710938 C 127.691406 206.699219 126.304688 205.511719 125.0625 204.152344 C 123.824219 202.792969 122.773438 201.300781 121.90625 199.679688 L 121.90625 231.863281 Z M 121.554688 179.566406 L 122.539062 189.066406 C 124.277344 199.886719 130.683594 206.277344 140.738281 207.476562 C 141.910156 207.671875 143.089844 207.761719 144.277344 207.75 C 145.464844 207.738281 146.640625 207.628906 147.808594 207.414062 C 148.976562 207.203125 150.121094 206.890625 151.234375 206.480469 C 152.347656 206.070312 153.417969 205.570312 154.445312 204.976562 C 155.476562 204.382812 156.445312 203.707031 157.355469 202.945312 C 158.265625 202.183594 159.105469 201.351562 159.875 200.449219 C 160.640625 199.542969 161.324219 198.578125 161.925781 197.554688 C 162.527344 196.535156 163.035156 195.46875 163.453125 194.355469 C 167.363281 185.050781 167.078125 174.515625 162.679688 165.425781 C 162.234375 164.429688 161.710938 163.476562 161.113281 162.566406 C 160.511719 161.652344 159.839844 160.796875 159.101562 159.992188 C 158.363281 159.1875 157.5625 158.449219 156.707031 157.777344 C 155.847656 157.101562 154.9375 156.5 153.984375 155.972656 C 153.027344 155.445312 152.035156 155 151.003906 154.632812 C 149.976562 154.265625 148.925781 153.980469 147.851562 153.785156 C 146.777344 153.585938 145.691406 153.476562 144.601562 153.453125 C 143.507812 153.433594 142.421875 153.496094 141.339844 153.652344 C 140.324219 153.722656 139.320312 153.875 138.328125 154.105469 C 137.335938 154.335938 136.367188 154.636719 135.421875 155.015625 C 134.476562 155.394531 133.566406 155.84375 132.6875 156.363281 C 131.8125 156.882812 130.984375 157.46875 130.199219 158.117188 C 129.414062 158.765625 128.683594 159.46875 128.007812 160.230469 C 127.332031 160.992188 126.71875 161.800781 126.167969 162.65625 C 125.617188 163.511719 125.136719 164.40625 124.726562 165.335938 C 124.3125 166.265625 123.976562 167.222656 123.710938 168.203125 C 122.773438 171.949219 122.054688 175.734375 121.554688 179.5625 Z M 260.472656 190.5625 C 260.386719 191.269531 260.273438 191.96875 260.128906 192.664062 C 259.984375 193.359375 259.808594 194.046875 259.597656 194.726562 C 259.390625 195.402344 259.15625 196.070312 258.886719 196.730469 C 258.621094 197.386719 258.324219 198.03125 257.996094 198.664062 C 257.671875 199.292969 257.316406 199.910156 256.9375 200.507812 C 256.554688 201.105469 256.148438 201.6875 255.714844 202.25 C 255.28125 202.8125 254.824219 203.355469 254.339844 203.878906 C 253.859375 204.398438 253.355469 204.898438 252.828125 205.375 C 252.300781 205.847656 251.75 206.300781 251.183594 206.726562 C 250.617188 207.15625 250.03125 207.554688 249.425781 207.929688 C 248.820312 208.304688 248.203125 208.652344 247.566406 208.96875 C 246.929688 209.289062 246.28125 209.578125 245.621094 209.835938 C 244.960938 210.097656 244.289062 210.328125 243.605469 210.527344 C 242.925781 210.730469 242.234375 210.898438 241.539062 211.035156 C 240.839844 211.171875 240.136719 211.28125 239.429688 211.355469 C 238.722656 211.429688 238.015625 211.472656 237.304688 211.484375 C 218.867188 212.410156 210.214844 200.1875 208.839844 186.078125 C 208.363281 182.25 208.429688 178.429688 209.039062 174.617188 C 209.652344 170.804688 210.78125 167.152344 212.433594 163.664062 C 213.003906 162.472656 213.664062 161.335938 214.414062 160.25 C 215.167969 159.164062 216 158.144531 216.910156 157.191406 C 217.824219 156.238281 218.804688 155.363281 219.859375 154.5625 C 220.910156 153.765625 222.019531 153.054688 223.183594 152.429688 C 224.347656 151.808594 225.554688 151.28125 226.800781 150.847656 C 228.050781 150.414062 229.324219 150.082031 230.625 149.851562 C 231.925781 149.621094 233.234375 149.492188 234.554688 149.46875 C 235.878906 149.445312 237.191406 149.523438 238.5 149.707031 C 239.746094 149.8125 240.972656 150.015625 242.183594 150.3125 C 243.398438 150.609375 244.578125 151 245.730469 151.480469 C 246.882812 151.960938 247.988281 152.53125 249.050781 153.183594 C 250.113281 153.839844 251.117188 154.574219 252.066406 155.382812 C 253.011719 156.195312 253.890625 157.078125 254.703125 158.027344 C 255.511719 158.972656 256.242188 159.980469 256.894531 161.042969 C 257.546875 162.105469 258.113281 163.214844 258.589844 164.363281 C 259.070312 165.515625 259.457031 166.699219 259.75 167.910156 C 260.6875 172.355469 261.375 176.839844 261.816406 181.359375 L 213.394531 181.359375 C 212.5 194.148438 219.382812 204.433594 229.136719 206.914062 C 241.289062 209.898438 251.675781 204.640625 255.445312 193.105469 C 256.28125 190.144531 257.808594 189.726562 260.503906 190.5625 Z M 213.359375 177.265625 L 256.667969 177.265625 C 256.398438 163.636719 247.902344 153.734375 236.375 153.621094 C 223.363281 153.410156 213.925781 162.917969 213.359375 177.265625 Z M 269.421875 190.863281 L 273.667969 190.863281 C 273.746094 192.425781 274.03125 193.945312 274.53125 195.429688 C 275.03125 196.910156 275.71875 198.296875 276.601562 199.589844 C 277.484375 200.878906 278.523438 202.03125 279.722656 203.035156 C 280.921875 204.039062 282.234375 204.863281 283.664062 205.507812 C 285.453125 206.3125 287.3125 206.910156 289.238281 207.296875 C 291.164062 207.679688 293.109375 207.847656 295.074219 207.796875 C 297.039062 207.746094 298.972656 207.476562 300.875 206.988281 C 302.777344 206.5 304.605469 205.808594 306.351562 204.910156 C 307.304688 204.484375 308.167969 203.921875 308.949219 203.226562 C 309.726562 202.535156 310.386719 201.738281 310.921875 200.84375 C 311.457031 199.949219 311.84375 198.996094 312.085938 197.980469 C 312.328125 196.964844 312.410156 195.9375 312.335938 194.898438 C 312.390625 193.894531 312.285156 192.910156 312.019531 191.941406 C 311.75 190.972656 311.335938 190.070312 310.773438 189.238281 C 310.210938 188.40625 309.53125 187.683594 308.734375 187.070312 C 307.9375 186.457031 307.0625 185.988281 306.113281 185.660156 C 301.441406 183.925781 296.476562 182.972656 291.714844 181.449219 C 286.757812 180.039062 281.929688 178.273438 277.230469 176.160156 C 269.5625 172.421875 269.085938 157.867188 277.769531 153.261719 C 278.875 152.636719 280.015625 152.085938 281.191406 151.601562 C 282.367188 151.121094 283.570312 150.714844 284.796875 150.382812 C 286.023438 150.050781 287.265625 149.796875 288.523438 149.621094 C 289.78125 149.441406 291.046875 149.34375 292.316406 149.324219 C 293.585938 149.304688 294.855469 149.363281 296.117188 149.503906 C 297.382812 149.640625 298.628906 149.859375 299.867188 150.152344 C 301.101562 150.445312 302.316406 150.816406 303.507812 151.261719 C 304.695312 151.703125 305.855469 152.222656 306.980469 152.8125 C 312.585938 155.902344 315.683594 162.140625 314.761719 168.472656 L 311.125 168.472656 C 311.125 168.300781 310.792969 168.144531 310.792969 167.964844 C 310.34375 156.375 300.585938 152.75 290.113281 153.769531 C 286.945312 154.121094 283.945312 155.078125 281.132812 156.488281 C 280.289062 156.875 279.519531 157.378906 278.832031 158.003906 C 278.144531 158.625 277.566406 159.339844 277.101562 160.144531 C 276.632812 160.945312 276.300781 161.800781 276.101562 162.707031 C 275.902344 163.613281 275.84375 164.53125 275.929688 165.453125 C 275.929688 166.378906 276.070312 167.28125 276.355469 168.164062 C 276.636719 169.046875 277.046875 169.863281 277.582031 170.617188 C 278.117188 171.371094 278.753906 172.027344 279.496094 172.585938 C 280.234375 173.144531 281.039062 173.574219 281.914062 173.882812 C 286.488281 175.558594 291.339844 176.632812 296.070312 177.945312 L 307.5 180.929688 C 308.144531 181.144531 308.773438 181.402344 309.378906 181.707031 C 309.984375 182.015625 310.566406 182.363281 311.121094 182.757812 C 311.671875 183.152344 312.195312 183.582031 312.683594 184.054688 C 313.171875 184.527344 313.621094 185.035156 314.035156 185.574219 C 314.445312 186.113281 314.8125 186.679688 315.140625 187.277344 C 315.464844 187.871094 315.746094 188.488281 315.976562 189.128906 C 316.210938 189.765625 316.394531 190.417969 316.527344 191.082031 C 316.664062 191.746094 316.746094 192.417969 316.777344 193.097656 C 317.691406 199.226562 314.5625 205.246094 309.027344 208.039062 C 299.03125 213.6875 282.570312 212.195312 275.234375 205.054688 C 271.484375 201.285156 269.390625 196.167969 269.433594 190.859375 Z M 370.640625 168.476562 L 366.660156 168.476562 C 366.660156 167.941406 366.449219 167.425781 366.390625 167.011719 C 366.375 166.273438 366.296875 165.542969 366.15625 164.816406 C 366.011719 164.089844 365.8125 163.378906 365.550781 162.6875 C 365.285156 161.996094 364.96875 161.332031 364.589844 160.695312 C 364.214844 160.058594 363.789062 159.457031 363.308594 158.890625 C 362.832031 158.328125 362.308594 157.808594 361.738281 157.332031 C 361.171875 156.855469 360.566406 156.433594 359.925781 156.0625 C 359.289062 155.6875 358.621094 155.375 357.925781 155.113281 C 357.230469 154.855469 356.519531 154.660156 355.792969 154.523438 C 353.027344 153.730469 350.207031 153.402344 347.332031 153.539062 C 344.457031 153.679688 341.679688 154.273438 339.003906 155.328125 C 338.476562 155.480469 337.964844 155.671875 337.472656 155.902344 C 336.976562 156.136719 336.503906 156.40625 336.050781 156.714844 C 335.597656 157.023438 335.175781 157.363281 334.78125 157.742188 C 334.382812 158.117188 334.019531 158.523438 333.6875 158.957031 C 333.355469 159.394531 333.0625 159.851562 332.804688 160.335938 C 332.550781 160.816406 332.332031 161.316406 332.15625 161.832031 C 331.980469 162.351562 331.84375 162.878906 331.753906 163.417969 C 331.660156 163.953125 331.613281 164.496094 331.609375 165.042969 C 331.589844 165.578125 331.617188 166.113281 331.691406 166.644531 C 331.765625 167.175781 331.882812 167.695312 332.042969 168.207031 C 332.207031 168.71875 332.410156 169.210938 332.65625 169.6875 C 332.90625 170.164062 333.191406 170.617188 333.515625 171.042969 C 333.839844 171.46875 334.199219 171.867188 334.59375 172.230469 C 334.984375 172.597656 335.40625 172.925781 335.855469 173.21875 C 336.304688 173.511719 336.777344 173.765625 337.269531 173.980469 C 337.761719 174.191406 338.269531 174.359375 338.792969 174.488281 L 356.988281 179.152344 C 358.957031 179.621094 360.894531 180.210938 362.792969 180.914062 C 368.59375 183.019531 372.535156 188.402344 372.710938 194.550781 C 372.730469 195.296875 372.695312 196.042969 372.605469 196.789062 C 372.515625 197.53125 372.371094 198.261719 372.167969 198.984375 C 371.96875 199.703125 371.714844 200.40625 371.40625 201.089844 C 371.101562 201.773438 370.742188 202.429688 370.339844 203.058594 C 369.933594 203.6875 369.480469 204.285156 368.984375 204.84375 C 368.492188 205.40625 367.957031 205.929688 367.382812 206.410156 C 366.808594 206.890625 366.203125 207.328125 365.5625 207.71875 C 364.921875 208.109375 364.257812 208.449219 363.566406 208.738281 C 361.453125 209.695312 359.265625 210.425781 357 210.925781 C 354.738281 211.429688 352.445312 211.691406 350.125 211.714844 C 347.804688 211.738281 345.507812 211.519531 343.234375 211.066406 C 340.960938 210.609375 338.757812 209.925781 336.628906 209.007812 C 335.757812 208.632812 334.921875 208.195312 334.117188 207.691406 C 333.3125 207.191406 332.550781 206.628906 331.832031 206.011719 C 331.113281 205.394531 330.445312 204.722656 329.828125 204.003906 C 329.214844 203.285156 328.65625 202.523438 328.15625 201.71875 C 327.65625 200.914062 327.21875 200.074219 326.847656 199.203125 C 326.472656 198.332031 326.171875 197.4375 325.933594 196.519531 C 325.699219 195.601562 325.535156 194.671875 325.441406 193.730469 C 325.347656 192.789062 325.324219 191.84375 325.375 190.898438 L 329.265625 190.898438 C 330.726562 197.9375 335.570312 203.804688 342.214844 206.578125 C 348.855469 209.351562 356.445312 208.671875 362.484375 204.765625 C 363.390625 204.296875 364.214844 203.707031 364.953125 203 C 365.6875 202.296875 366.3125 201.5 366.820312 200.617188 C 367.332031 199.730469 367.707031 198.792969 367.945312 197.800781 C 368.1875 196.808594 368.28125 195.804688 368.234375 194.785156 C 368.277344 193.78125 368.160156 192.796875 367.886719 191.832031 C 367.609375 190.863281 367.183594 189.96875 366.613281 189.140625 C 366.046875 188.3125 365.359375 187.597656 364.554688 186.992188 C 363.75 186.386719 362.871094 185.925781 361.917969 185.609375 C 357.246094 183.875 352.28125 182.949219 347.519531 181.394531 C 342.535156 180.007812 337.675781 178.265625 332.945312 176.164062 C 325.460938 172.488281 324.863281 158.054688 333.398438 153.449219 C 334.515625 152.800781 335.675781 152.226562 336.867188 151.726562 C 338.0625 151.222656 339.285156 150.800781 340.535156 150.460938 C 341.78125 150.117188 343.046875 149.855469 344.332031 149.671875 C 345.613281 149.492188 346.902344 149.394531 348.199219 149.382812 C 349.492188 149.367188 350.785156 149.4375 352.070312 149.585938 C 353.359375 149.738281 354.628906 149.972656 355.886719 150.289062 C 357.140625 150.605469 358.371094 151 359.578125 151.472656 C 360.78125 151.945312 361.953125 152.496094 363.085938 153.121094 C 363.734375 153.507812 364.351562 153.9375 364.9375 154.414062 C 365.523438 154.886719 366.070312 155.402344 366.582031 155.957031 C 367.09375 156.511719 367.5625 157.101562 367.988281 157.722656 C 368.414062 158.34375 368.792969 158.996094 369.125 159.671875 C 369.457031 160.347656 369.738281 161.046875 369.96875 161.765625 C 370.199219 162.480469 370.378906 163.210938 370.5 163.957031 C 370.625 164.699219 370.699219 165.449219 370.714844 166.199219 C 370.730469 166.953125 370.691406 167.707031 370.597656 168.453125 Z M 109.925781 210.023438 C 109.535156 210.171875 109.136719 210.28125 108.730469 210.355469 C 108.320312 210.429688 107.910156 210.46875 107.492188 210.464844 C 107.078125 210.464844 106.664062 210.429688 106.257812 210.351562 C 105.847656 210.277344 105.449219 210.167969 105.0625 210.019531 C 104.671875 209.871094 104.300781 209.691406 103.945312 209.476562 C 103.589844 209.261719 103.257812 209.015625 102.949219 208.742188 C 102.636719 208.464844 102.351562 208.164062 102.097656 207.835938 C 101.839844 207.511719 101.617188 207.164062 101.425781 206.796875 L 85.949219 185.425781 L 83.707031 182.441406 L 65.746094 206.828125 C 65.566406 207.179688 65.355469 207.511719 65.113281 207.824219 C 64.871094 208.140625 64.605469 208.429688 64.308594 208.695312 C 64.015625 208.957031 63.699219 209.195312 63.363281 209.402344 C 63.027344 209.613281 62.671875 209.789062 62.304688 209.933594 C 61.9375 210.078125 61.558594 210.1875 61.167969 210.265625 C 60.78125 210.339844 60.386719 210.382812 59.992188 210.386719 C 59.59375 210.390625 59.203125 210.363281 58.8125 210.296875 C 58.417969 210.230469 58.039062 210.128906 57.664062 209.996094 L 80.800781 179.003906 L 59.277344 151 C 62.46875 149.847656 66.027344 151.097656 67.804688 153.984375 L 83.84375 175.617188 L 99.976562 154.070312 C 100.160156 153.722656 100.371094 153.398438 100.613281 153.089844 C 100.855469 152.785156 101.125 152.5 101.417969 152.242188 C 101.710938 151.984375 102.027344 151.753906 102.363281 151.554688 C 102.699219 151.355469 103.050781 151.1875 103.417969 151.050781 C 103.785156 150.914062 104.160156 150.808594 104.542969 150.742188 C 104.929688 150.675781 105.320312 150.640625 105.710938 150.644531 C 106.101562 150.644531 106.488281 150.683594 106.875 150.757812 C 107.257812 150.832031 107.632812 150.9375 107.996094 151.082031 L 99.65625 162.144531 L 88.339844 176.851562 C 88.183594 176.992188 88.042969 177.144531 87.917969 177.316406 C 87.796875 177.484375 87.691406 177.664062 87.605469 177.855469 C 87.519531 178.050781 87.453125 178.246094 87.410156 178.453125 C 87.363281 178.660156 87.34375 178.867188 87.34375 179.078125 C 87.34375 179.289062 87.363281 179.496094 87.410156 179.699219 C 87.453125 179.90625 87.519531 180.105469 87.605469 180.296875 C 87.691406 180.488281 87.796875 180.667969 87.917969 180.839844 C 88.042969 181.007812 88.183594 181.164062 88.339844 181.304688 L 109.890625 210.023438 Z M 208.15625 150.699219 L 208.15625 154.914062 C 207.402344 154.867188 206.644531 154.855469 205.890625 154.886719 C 205.132812 154.914062 204.382812 154.984375 203.632812 155.089844 C 202.882812 155.199219 202.144531 155.347656 201.410156 155.53125 C 200.675781 155.714844 199.957031 155.9375 199.246094 156.199219 C 198.535156 156.460938 197.839844 156.757812 197.164062 157.089844 C 196.484375 157.425781 195.824219 157.792969 195.183594 158.195312 C 194.542969 158.59375 193.925781 159.03125 193.332031 159.496094 C 192.738281 159.960938 192.167969 160.460938 191.625 160.984375 C 191.082031 161.511719 190.566406 162.0625 190.082031 162.644531 C 189.597656 163.222656 189.144531 163.824219 188.722656 164.453125 C 188.300781 165.078125 187.914062 165.726562 187.558594 166.394531 C 187.207031 167.0625 186.886719 167.746094 186.605469 168.445312 C 186.320312 169.148438 186.078125 169.859375 185.871094 170.585938 C 185.660156 171.3125 185.492188 172.046875 185.363281 172.792969 C 185.230469 173.535156 185.140625 174.285156 185.085938 175.039062 C 185.035156 175.792969 185.023438 176.546875 185.046875 177.300781 C 185.046875 187.144531 185.046875 196.984375 185.046875 206.828125 L 185.046875 210.175781 L 180.769531 210.175781 L 180.769531 150.964844 L 184.988281 150.964844 L 184.988281 163.097656 C 190.164062 154.246094 198.15625 150.964844 208.183594 150.726562 Z M 2.28125 178.617188 L 4.164062 169.320312 C 9.34375 150.941406 30.445312 143.289062 44.960938 154.675781 C 53.460938 161.34375 55.582031 170.785156 55.167969 181.425781 L 7.277344 181.425781 C 6.503906 200.433594 20.238281 211.910156 37.804688 206.050781 C 43.59375 203.945312 47.953125 199.140625 49.386719 193.171875 C 50.316406 190.183594 51.847656 189.671875 54.65625 190.535156 C 54.421875 192.355469 53.984375 194.125 53.351562 195.847656 C 52.714844 197.566406 51.894531 199.195312 50.886719 200.730469 C 49.882812 202.265625 48.714844 203.667969 47.390625 204.941406 C 46.066406 206.210938 44.617188 207.316406 43.042969 208.261719 C 41.75 208.96875 40.40625 209.570312 39.019531 210.066406 C 37.628906 210.558594 36.210938 210.945312 34.761719 211.21875 C 33.3125 211.492188 31.851562 211.648438 30.378906 211.695312 C 28.90625 211.738281 27.4375 211.667969 25.976562 211.480469 C 24.511719 211.292969 23.074219 210.992188 21.65625 210.582031 C 20.242188 210.167969 18.867188 209.648438 17.535156 209.019531 C 16.199219 208.390625 14.925781 207.664062 13.707031 206.835938 C 12.488281 206.003906 11.339844 205.085938 10.265625 204.078125 C 5.988281 199.277344 3.410156 193.207031 2.90625 186.800781 C 2.90625 185.746094 2.554688 184.761719 2.308594 183.816406 C 2.285156 182.042969 2.273438 180.308594 2.273438 178.617188 Z M 7.335938 177.332031 L 50.644531 177.332031 C 50.375 163.554688 41.667969 153.78125 30.054688 153.6875 C 17.125 153.515625 7.875 163.074219 7.304688 177.273438 Z M 7.335938 177.332031 "/>
</g>
</g>
</svg>
