<?xml version="1.0" encoding="UTF-8"?>
<svg xmlns="http://www.w3.org/2000/svg" xmlns:xlink="http://www.w3.org/1999/xlink" width="375pt" height="374.999991pt" viewBox="0 0 375 374.999991" version="1.2">
<defs>
<clipPath id="clip1">
  <path d="M 32.578125 0 L 342.328125 0 L 342.328125 375 L 32.578125 375 Z M 32.578125 0 "/>
</clipPath>
</defs>
<g id="surface1">
<g clip-path="url(#clip1)" clip-rule="nonzero">
<path style=" stroke:none;fill-rule:nonzero;fill:rgb(100%,94.898987%,1.179504%);fill-opacity:1;" d="M 301.550781 0 L 73.355469 0 C 50.882812 0 32.609375 18.277344 32.609375 40.761719 L 32.609375 334.238281 C 32.609375 356.722656 50.882812 375 73.355469 375 L 301.550781 375 C 324.023438 375 342.296875 356.722656 342.296875 334.238281 L 342.296875 40.761719 C 342.296875 18.277344 324.023438 0 301.550781 0 Z M 110.507812 317.234375 L 110.507812 236.125 L 151.066406 276.695312 Z M 262.933594 317.488281 L 224.09375 317.488281 L 224.09375 175.046875 C 224.09375 175.046875 233.359375 140.945312 110 188.996094 C 109.777344 189.601562 109.777344 57.257812 109.777344 57.257812 L 150.078125 57.035156 L 150.078125 141.804688 C 150.078125 141.804688 262.933594 97.347656 262.933594 175.527344 Z M 247.046875 108.335938 L 204.292969 108.335938 C 219.703125 89.515625 233.613281 57.257812 233.613281 57.257812 L 277.832031 57.257812 C 277.832031 57.257812 270.253906 78.273438 247.046875 108.335938 Z M 247.046875 108.335938 "/>
</g>
</g>
</svg>
