<?xml version="1.0" encoding="UTF-8"?>
<svg xmlns="http://www.w3.org/2000/svg" xmlns:xlink="http://www.w3.org/1999/xlink" width="375pt" height="374.999991pt" viewBox="0 0 375 374.999991" version="1.2">
<defs>
<clipPath id="clip1">
  <path d="M 0 1.375 L 373.5 1.375 L 373.5 374.875 L 0 374.875 Z M 0 1.375 "/>
</clipPath>
</defs>
<g id="surface1">
<g clip-path="url(#clip1)" clip-rule="nonzero">
<path style=" stroke:none;fill-rule:nonzero;fill:rgb(100%,94.898987%,1.179504%);fill-opacity:1;" d="M 0 1.375 L 373.5 1.375 L 373.5 374.875 L 0 374.875 Z M 0 1.375 "/>
</g>
<path style=" stroke:none;fill-rule:nonzero;fill:rgb(0%,0%,0%);fill-opacity:1;" d="M 98.207031 313.496094 L 126.789062 296.207031 C 132.304688 305.980469 137.320312 314.253906 149.355469 314.253906 C 160.882812 314.253906 168.164062 309.730469 168.164062 292.195312 L 168.164062 172.847656 L 203.25 172.847656 L 203.25 292.691406 C 203.25 329.035156 181.949219 345.59375 150.859375 345.59375 C 122.777344 345.59375 106.480469 331.046875 98.207031 313.496094 "/>
<path style=" stroke:none;fill-rule:nonzero;fill:rgb(0%,0%,0%);fill-opacity:1;" d="M 222.320312 309.730469 L 250.902344 293.1875 C 258.429688 305.46875 268.207031 314.5 285.492188 314.5 C 300.039062 314.5 309.320312 307.234375 309.320312 297.199219 C 309.320312 285.160156 299.792969 280.902344 283.742188 273.882812 L 274.976562 270.121094 C 249.648438 259.335938 232.855469 245.8125 232.855469 217.214844 C 232.855469 190.898438 252.898438 170.835938 284.253906 170.835938 C 306.5625 170.835938 322.609375 178.613281 334.136719 198.921875 L 306.808594 216.472656 C 300.796875 205.691406 294.277344 201.429688 284.253906 201.429688 C 273.96875 201.429688 267.445312 207.953125 267.445312 216.472656 C 267.445312 227.007812 273.96875 231.265625 289.011719 237.789062 L 297.777344 241.539062 C 327.613281 254.332031 344.421875 267.363281 344.421875 296.703125 C 344.421875 328.289062 319.605469 345.59375 286.253906 345.59375 C 253.660156 345.59375 232.605469 330.039062 222.320312 309.730469 "/>
</g>
</svg>
