<?xml version="1.0" encoding="UTF-8"?>
<svg xmlns="http://www.w3.org/2000/svg" xmlns:xlink="http://www.w3.org/1999/xlink" width="375pt" height="374.999991pt" viewBox="0 0 375 374.999991" version="1.2">
<g id="surface1">
<path style=" stroke:none;fill-rule:nonzero;fill:rgb(100%,94.898987%,1.179504%);fill-opacity:1;" d="M 304.6875 375 L 70.3125 375 C 31.476562 375 0 343.523438 0 304.6875 L 0 70.3125 C 0 31.476562 31.476562 0 70.3125 0 L 304.6875 0 C 343.523438 0 375 31.476562 375 70.3125 L 375 304.6875 C 375 343.523438 343.523438 375 304.6875 375 Z M 304.6875 375 "/>
<path style=" stroke:none;fill-rule:nonzero;fill:rgb(0.389099%,0.389099%,0.389099%);fill-opacity:1;" d="M 186.597656 93.75 C 186.585938 93.902344 186.5625 93.996094 186.5625 94.136719 L 186.5625 94.242188 L 186.550781 94.242188 C 186.539062 94.359375 186.527344 94.441406 186.515625 94.546875 L 186.515625 94.664062 L 186.503906 94.664062 C 186.503906 94.746094 186.492188 94.804688 186.492188 94.863281 L 186.492188 95.0625 L 186.46875 95.0625 C 186.457031 95.121094 186.457031 95.203125 186.445312 95.261719 L 186.445312 95.425781 L 186.433594 95.425781 C 186.433594 95.484375 186.433594 95.542969 186.421875 95.589844 L 186.421875 95.742188 L 186.410156 95.742188 C 186.410156 95.824219 186.398438 95.917969 186.398438 95.988281 L 186.398438 96 C 186.375 96.128906 186.351562 96.269531 186.328125 96.386719 L 186.328125 96.445312 L 186.316406 96.445312 C 186.304688 96.480469 186.292969 96.503906 186.292969 96.539062 L 186.292969 96.667969 L 186.269531 96.667969 L 186.269531 96.84375 L 186.234375 96.84375 L 186.234375 96.984375 L 186.199219 96.984375 L 186.199219 97.148438 L 186.164062 97.148438 L 186.164062 97.300781 L 186.09375 97.300781 L 186.09375 97.429688 L 186.046875 97.429688 L 186.046875 97.535156 L 186.011719 97.535156 L 186.011719 97.675781 L 185.976562 97.675781 L 185.976562 97.78125 L 185.941406 97.78125 L 185.941406 97.886719 L 185.917969 97.886719 L 185.917969 98.003906 L 185.882812 98.003906 C 185.871094 98.015625 185.871094 98.027344 185.871094 98.039062 L 185.871094 98.121094 L 185.847656 98.121094 C 185.835938 98.132812 185.835938 98.15625 185.835938 98.167969 L 185.835938 98.214844 L 185.824219 98.214844 C 185.8125 98.238281 185.8125 98.273438 185.8125 98.296875 C 185.789062 98.355469 185.753906 98.402344 185.730469 98.460938 L 185.730469 98.472656 C 185.71875 98.484375 185.695312 98.507812 185.695312 98.53125 L 185.695312 98.589844 L 185.660156 98.589844 L 185.660156 98.648438 L 185.625 98.648438 L 185.625 98.707031 L 185.601562 98.707031 L 185.601562 98.789062 L 185.554688 98.789062 L 185.554688 98.894531 L 185.519531 98.894531 L 185.519531 98.929688 L 185.484375 98.929688 L 185.484375 98.988281 L 185.449219 98.988281 L 185.449219 99.070312 L 185.414062 99.070312 L 185.414062 99.128906 L 185.367188 99.128906 L 185.367188 99.210938 L 185.332031 99.210938 L 185.332031 99.269531 L 185.296875 99.269531 L 185.296875 99.328125 L 185.273438 99.328125 L 185.273438 99.410156 L 185.238281 99.410156 L 185.238281 99.46875 L 185.203125 99.46875 L 185.203125 99.515625 L 185.167969 99.515625 L 185.167969 99.574219 L 185.121094 99.574219 L 185.121094 99.644531 L 185.085938 99.644531 L 185.085938 99.691406 L 185.050781 99.691406 L 185.050781 99.75 L 185.015625 99.75 L 185.015625 99.832031 L 184.980469 99.832031 L 184.980469 99.867188 L 184.957031 99.867188 L 184.957031 99.925781 L 184.910156 99.925781 L 184.910156 99.960938 L 184.875 99.960938 L 184.875 100.042969 L 184.839844 100.042969 L 184.839844 100.078125 L 184.804688 100.078125 L 184.804688 100.136719 L 184.769531 100.136719 L 184.769531 100.183594 L 184.746094 100.183594 L 184.734375 100.21875 L 184.734375 100.253906 L 184.722656 100.253906 C 184.710938 100.265625 184.710938 100.265625 184.710938 100.289062 L 184.710938 100.300781 L 184.699219 100.300781 C 184.6875 100.324219 184.6875 100.335938 184.664062 100.359375 L 184.664062 100.382812 L 184.652344 100.382812 C 184.617188 100.429688 184.59375 100.476562 184.558594 100.523438 L 184.558594 100.535156 C 184.546875 100.546875 184.5 100.582031 184.488281 100.617188 L 184.488281 100.628906 L 184.476562 100.628906 C 184.464844 100.652344 184.453125 100.664062 184.453125 100.675781 L 184.453125 100.699219 L 184.441406 100.699219 L 184.417969 100.722656 L 184.417969 100.734375 L 184.40625 100.734375 C 184.40625 100.746094 184.394531 100.746094 184.382812 100.769531 L 184.382812 100.804688 L 184.359375 100.804688 L 184.347656 100.816406 L 184.347656 100.828125 L 184.335938 100.828125 C 184.335938 100.839844 184.324219 100.839844 184.324219 100.851562 L 184.324219 100.875 L 184.289062 100.875 C 184.289062 100.886719 184.277344 100.886719 184.277344 100.898438 L 184.277344 100.945312 L 184.253906 100.945312 L 184.253906 100.980469 L 184.21875 100.980469 L 184.21875 101.015625 L 184.183594 101.015625 L 184.183594 101.074219 L 184.148438 101.074219 L 184.148438 101.015625 L 184.113281 101.015625 L 184.113281 101.050781 L 184.078125 101.050781 L 184.078125 101.097656 L 184.042969 101.097656 L 184.042969 101.15625 L 183.984375 101.15625 L 183.984375 101.191406 L 183.949219 101.191406 L 183.949219 101.238281 L 183.914062 101.238281 L 183.914062 101.273438 L 183.878906 101.273438 L 183.878906 101.332031 L 183.832031 101.332031 L 183.832031 101.367188 L 183.796875 101.367188 L 183.796875 101.414062 L 183.761719 101.414062 L 183.761719 101.449219 L 183.726562 101.449219 L 183.726562 101.484375 L 183.691406 101.484375 L 183.691406 101.566406 L 183.679688 101.566406 L 183.679688 101.601562 L 183.632812 101.601562 L 183.632812 101.636719 L 183.597656 101.636719 L 183.597656 101.648438 L 183.5625 101.648438 L 183.5625 101.683594 L 183.527344 101.683594 L 183.527344 101.765625 L 183.492188 101.765625 L 183.492188 101.800781 L 183.457031 101.800781 L 183.457031 101.835938 L 183.421875 101.835938 L 183.421875 101.882812 L 183.386719 101.882812 L 183.386719 101.917969 L 183.351562 101.917969 L 183.351562 101.953125 L 183.28125 101.953125 L 183.28125 102.035156 L 183.246094 102.035156 L 183.246094 102.070312 L 183.199219 102.070312 L 183.199219 102.105469 L 183.164062 102.105469 L 183.164062 102.140625 L 183.128906 102.140625 L 183.128906 102.1875 L 183.09375 102.1875 L 183.09375 102.222656 L 183.058594 102.222656 L 183.058594 102.28125 L 183.023438 102.28125 L 183.023438 102.316406 L 182.976562 102.316406 L 182.976562 102.363281 L 182.964844 102.363281 L 182.964844 102.398438 L 182.929688 102.398438 L 182.929688 102.433594 L 182.894531 102.433594 L 182.894531 102.46875 L 182.859375 102.46875 L 182.859375 102.515625 L 182.8125 102.515625 L 182.8125 102.550781 L 182.789062 102.550781 C 182.777344 102.5625 182.777344 102.5625 182.777344 102.5625 L 182.777344 102.574219 L 182.765625 102.574219 L 182.730469 102.609375 C 182.730469 102.609375 182.71875 102.621094 182.695312 102.632812 L 182.695312 102.679688 L 182.660156 102.679688 L 182.660156 102.714844 L 182.625 102.714844 L 182.625 102.75 L 182.589844 102.75 L 182.589844 102.785156 L 182.566406 102.785156 L 182.566406 102.773438 L 182.566406 102.796875 L 182.554688 102.796875 L 182.542969 102.808594 L 182.542969 102.832031 L 182.53125 102.832031 C 182.496094 102.878906 182.472656 102.914062 182.414062 102.960938 C 182.402344 102.972656 182.355469 103.019531 182.320312 103.042969 C 182.226562 103.101562 182.109375 103.207031 182.003906 103.289062 C 181.945312 103.324219 181.875 103.382812 181.828125 103.417969 L 181.828125 103.429688 L 181.816406 103.429688 C 181.6875 103.535156 181.570312 103.628906 181.429688 103.734375 L 181.429688 103.746094 C 181.242188 103.898438 181.054688 104.050781 180.84375 104.226562 L 180.84375 104.214844 L 180.832031 104.214844 C 180.375 104.578125 179.894531 105 179.34375 105.457031 L 179.34375 105.46875 L 179.332031 105.46875 C 177.984375 106.628906 176.378906 108.105469 174.585938 109.910156 L 174.433594 110.0625 C 163.570312 121.054688 146.460938 143.964844 144.65625 180.972656 C 144.492188 184.03125 144.527344 187.007812 144.703125 189.914062 L 144.703125 189.984375 C 145.570312 204.574219 150.257812 217.019531 156.105469 227.144531 L 156.105469 227.15625 C 158.4375 231.1875 160.957031 234.855469 163.5 238.136719 L 163.5 238.148438 C 172.300781 249.515625 181.289062 256.253906 183.574219 257.882812 C 187.089844 265.875 186.773438 279.597656 186.773438 279.597656 L 191.894531 281.25 C 191.894531 281.25 190.851562 267.960938 192.316406 261.550781 C 192.773438 259.546875 193.851562 257.835938 195.105469 256.382812 C 195.949219 255.796875 198.457031 254.027344 201.46875 251.34375 C 201.609375 251.191406 201.691406 251.0625 201.820312 250.921875 C 213.972656 239.847656 236.660156 212.566406 228.878906 168.117188 C 218.789062 124.675781 195 110.402344 192.445312 104.941406 C 189.632812 101.085938 186.597656 93.75 186.597656 93.75 Z M 186.597656 93.75 "/>
</g>
</svg>
