<?xml version="1.0" encoding="UTF-8"?>
<svg xmlns="http://www.w3.org/2000/svg" xmlns:xlink="http://www.w3.org/1999/xlink" width="375pt" height="374.999991pt" viewBox="0 0 375 374.999991" version="1.2">
<defs>
<clipPath id="clip1">
  <path d="M 0 15.703125 L 329 15.703125 L 329 359.203125 L 0 359.203125 Z M 0 15.703125 "/>
</clipPath>
</defs>
<g id="surface1">
<g clip-path="url(#clip1)" clip-rule="nonzero">
<path style=" stroke:none;fill-rule:nonzero;fill:rgb(100%,94.898987%,1.179504%);fill-opacity:1;" d="M 320.253906 265.519531 C 315.941406 265.519531 312.441406 269.019531 312.441406 273.328125 L 312.441406 320.167969 C 312.441406 333.082031 301.933594 343.589844 289.015625 343.589844 L 39.128906 343.589844 C 26.214844 343.589844 15.703125 333.082031 15.703125 320.167969 L 15.703125 93.769531 L 312.441406 93.769531 L 312.441406 148.417969 C 312.441406 152.726562 315.941406 156.226562 320.253906 156.226562 C 324.5625 156.226562 328.0625 152.726562 328.0625 148.417969 L 328.0625 54.738281 C 328.0625 33.222656 310.539062 15.703125 289.015625 15.703125 L 39.128906 15.703125 C 17.609375 15.703125 0.0859375 33.222656 0.0859375 54.738281 L 0.0859375 320.167969 C 0.0859375 341.683594 17.609375 359.203125 39.128906 359.203125 L 289.015625 359.203125 C 310.539062 359.203125 328.0625 341.683594 328.0625 320.167969 L 328.0625 273.328125 C 328.0625 269.019531 324.5625 265.519531 320.253906 265.519531 Z M 39.128906 31.316406 L 289.015625 31.316406 C 301.933594 31.316406 312.441406 41.824219 312.441406 54.738281 L 312.441406 78.15625 L 15.703125 78.15625 L 15.703125 54.738281 C 15.703125 41.824219 26.214844 31.316406 39.128906 31.316406 Z M 39.128906 31.316406 "/>
</g>
<path style=" stroke:none;fill-rule:nonzero;fill:rgb(100%,94.898987%,1.179504%);fill-opacity:1;" d="M 46.9375 54.738281 C 46.9375 55.25 46.890625 55.757812 46.789062 56.261719 C 46.6875 56.761719 46.539062 57.25 46.34375 57.726562 C 46.148438 58.199219 45.90625 58.648438 45.621094 59.074219 C 45.339844 59.5 45.015625 59.894531 44.652344 60.257812 C 44.289062 60.621094 43.894531 60.945312 43.46875 61.226562 C 43.042969 61.511719 42.59375 61.753906 42.117188 61.949219 C 41.644531 62.144531 41.15625 62.292969 40.652344 62.394531 C 40.152344 62.492188 39.644531 62.542969 39.128906 62.542969 C 38.617188 62.542969 38.109375 62.492188 37.605469 62.394531 C 37.105469 62.292969 36.617188 62.144531 36.140625 61.949219 C 35.667969 61.753906 35.21875 61.511719 34.792969 61.226562 C 34.363281 60.945312 33.972656 60.621094 33.609375 60.257812 C 33.246094 59.894531 32.921875 59.5 32.636719 59.074219 C 32.351562 58.648438 32.113281 58.199219 31.914062 57.726562 C 31.71875 57.25 31.570312 56.761719 31.472656 56.261719 C 31.371094 55.757812 31.320312 55.25 31.320312 54.738281 C 31.320312 54.222656 31.371094 53.71875 31.472656 53.214844 C 31.570312 52.710938 31.71875 52.222656 31.914062 51.75 C 32.113281 51.277344 32.351562 50.828125 32.636719 50.398438 C 32.921875 49.972656 33.246094 49.578125 33.609375 49.21875 C 33.972656 48.855469 34.363281 48.53125 34.792969 48.246094 C 35.21875 47.960938 35.667969 47.722656 36.140625 47.523438 C 36.617188 47.328125 37.105469 47.179688 37.605469 47.082031 C 38.109375 46.980469 38.617188 46.929688 39.128906 46.929688 C 39.644531 46.929688 40.152344 46.980469 40.652344 47.082031 C 41.15625 47.179688 41.644531 47.328125 42.117188 47.523438 C 42.59375 47.722656 43.042969 47.960938 43.46875 48.246094 C 43.894531 48.53125 44.289062 48.855469 44.652344 49.21875 C 45.015625 49.578125 45.339844 49.972656 45.621094 50.398438 C 45.90625 50.828125 46.148438 51.277344 46.34375 51.75 C 46.539062 52.222656 46.6875 52.710938 46.789062 53.214844 C 46.890625 53.71875 46.9375 54.222656 46.9375 54.738281 Z M 46.9375 54.738281 "/>
<path style=" stroke:none;fill-rule:nonzero;fill:rgb(100%,94.898987%,1.179504%);fill-opacity:1;" d="M 78.175781 54.738281 C 78.175781 55.25 78.125 55.757812 78.023438 56.261719 C 77.925781 56.761719 77.777344 57.25 77.582031 57.726562 C 77.382812 58.199219 77.144531 58.648438 76.859375 59.074219 C 76.574219 59.5 76.25 59.894531 75.886719 60.257812 C 75.523438 60.621094 75.128906 60.945312 74.703125 61.226562 C 74.277344 61.511719 73.828125 61.753906 73.355469 61.949219 C 72.878906 62.144531 72.390625 62.292969 71.890625 62.394531 C 71.386719 62.492188 70.878906 62.542969 70.367188 62.542969 C 69.851562 62.542969 69.34375 62.492188 68.84375 62.394531 C 68.339844 62.292969 67.851562 62.144531 67.378906 61.949219 C 66.902344 61.753906 66.453125 61.511719 66.027344 61.226562 C 65.601562 60.945312 65.207031 60.621094 64.84375 60.257812 C 64.480469 59.894531 64.15625 59.5 63.871094 59.074219 C 63.589844 58.648438 63.347656 58.199219 63.152344 57.726562 C 62.953125 57.25 62.808594 56.761719 62.707031 56.261719 C 62.605469 55.757812 62.558594 55.25 62.558594 54.738281 C 62.558594 54.222656 62.605469 53.71875 62.707031 53.214844 C 62.808594 52.710938 62.953125 52.222656 63.152344 51.75 C 63.347656 51.277344 63.589844 50.828125 63.871094 50.398438 C 64.15625 49.972656 64.480469 49.578125 64.84375 49.21875 C 65.207031 48.855469 65.601562 48.53125 66.027344 48.246094 C 66.453125 47.960938 66.902344 47.722656 67.378906 47.523438 C 67.851562 47.328125 68.339844 47.179688 68.84375 47.082031 C 69.34375 46.980469 69.851562 46.929688 70.367188 46.929688 C 70.878906 46.929688 71.386719 46.980469 71.890625 47.082031 C 72.390625 47.179688 72.878906 47.328125 73.355469 47.523438 C 73.828125 47.722656 74.277344 47.960938 74.703125 48.246094 C 75.128906 48.53125 75.523438 48.855469 75.886719 49.21875 C 76.25 49.578125 76.574219 49.972656 76.859375 50.398438 C 77.144531 50.828125 77.382812 51.277344 77.582031 51.75 C 77.777344 52.222656 77.925781 52.710938 78.023438 53.214844 C 78.125 53.71875 78.175781 54.222656 78.175781 54.738281 Z M 78.175781 54.738281 "/>
<path style=" stroke:none;fill-rule:nonzero;fill:rgb(100%,94.898987%,1.179504%);fill-opacity:1;" d="M 109.410156 54.738281 C 109.410156 55.25 109.359375 55.757812 109.261719 56.261719 C 109.160156 56.761719 109.011719 57.25 108.816406 57.726562 C 108.621094 58.199219 108.378906 58.648438 108.09375 59.074219 C 107.808594 59.5 107.484375 59.894531 107.125 60.257812 C 106.761719 60.621094 106.367188 60.945312 105.941406 61.226562 C 105.511719 61.511719 105.0625 61.753906 104.589844 61.949219 C 104.117188 62.144531 103.628906 62.292969 103.125 62.394531 C 102.621094 62.492188 102.113281 62.542969 101.601562 62.542969 C 101.089844 62.542969 100.582031 62.492188 100.078125 62.394531 C 99.574219 62.292969 99.085938 62.144531 98.613281 61.949219 C 98.140625 61.753906 97.691406 61.511719 97.261719 61.226562 C 96.835938 60.945312 96.441406 60.621094 96.078125 60.257812 C 95.71875 59.894531 95.394531 59.5 95.109375 59.074219 C 94.824219 58.648438 94.582031 58.199219 94.386719 57.726562 C 94.191406 57.25 94.042969 56.761719 93.941406 56.261719 C 93.84375 55.757812 93.792969 55.25 93.792969 54.738281 C 93.792969 54.222656 93.84375 53.71875 93.941406 53.214844 C 94.042969 52.710938 94.191406 52.222656 94.386719 51.75 C 94.582031 51.277344 94.824219 50.828125 95.109375 50.398438 C 95.394531 49.972656 95.71875 49.578125 96.078125 49.21875 C 96.441406 48.855469 96.835938 48.53125 97.261719 48.246094 C 97.691406 47.960938 98.140625 47.722656 98.613281 47.523438 C 99.085938 47.328125 99.574219 47.179688 100.078125 47.082031 C 100.582031 46.980469 101.089844 46.929688 101.601562 46.929688 C 102.113281 46.929688 102.621094 46.980469 103.125 47.082031 C 103.628906 47.179688 104.117188 47.328125 104.589844 47.523438 C 105.0625 47.722656 105.511719 47.960938 105.941406 48.246094 C 106.367188 48.53125 106.761719 48.855469 107.125 49.21875 C 107.484375 49.578125 107.808594 49.972656 108.09375 50.398438 C 108.378906 50.828125 108.621094 51.277344 108.816406 51.75 C 109.011719 52.222656 109.160156 52.710938 109.261719 53.214844 C 109.359375 53.71875 109.410156 54.222656 109.410156 54.738281 Z M 109.410156 54.738281 "/>
<path style=" stroke:none;fill-rule:nonzero;fill:rgb(100%,94.898987%,1.179504%);fill-opacity:1;" d="M 203.085938 234.292969 C 193.855469 234.292969 187.765625 229.890625 187.453125 226.738281 C 187.046875 222.441406 183.25 219.148438 178.941406 219.710938 C 174.644531 220.117188 171.507812 223.925781 171.914062 228.21875 C 173.101562 240.585938 186.5 249.90625 203.101562 249.90625 C 220.625 249.90625 234.355469 239.617188 234.355469 226.488281 C 234.355469 214.277344 224.671875 206.5 205.554688 203.363281 L 203.242188 202.972656 C 189.546875 200.742188 187.5 197.179688 187.5 195.261719 C 187.5 192.152344 193.730469 187.453125 203.132812 187.453125 C 212.363281 187.453125 218.453125 191.839844 218.765625 194.996094 C 219.171875 199.273438 222.875 202.519531 227.277344 202.019531 C 231.574219 201.613281 234.714844 197.804688 234.308594 193.511719 C 233.121094 181.144531 219.71875 171.824219 203.117188 171.824219 C 185.59375 171.824219 171.867188 182.113281 171.867188 195.246094 C 171.867188 207.46875 181.566406 215.246094 200.710938 218.367188 L 201.976562 210.671875 L 203.023438 218.757812 C 216.003906 220.898438 218.71875 224.144531 218.71875 226.488281 C 218.71875 229.59375 212.488281 234.292969 203.085938 234.292969 Z M 203.085938 234.292969 "/>
<path style=" stroke:none;fill-rule:nonzero;fill:rgb(100%,94.898987%,1.179504%);fill-opacity:1;" d="M 312.441406 195.261719 C 312.441406 182.347656 301.933594 171.839844 289.015625 171.839844 L 273.398438 171.839844 C 260.484375 171.839844 249.972656 182.347656 249.972656 195.261719 L 249.972656 226.488281 C 249.972656 239.398438 260.484375 249.90625 273.398438 249.90625 L 289.015625 249.90625 C 292.625 249.90625 295.996094 249.019531 299.042969 247.566406 L 299.105469 247.628906 C 300.636719 249.144531 302.636719 249.90625 304.632812 249.90625 C 306.632812 249.90625 308.632812 249.144531 310.148438 247.628906 C 313.191406 244.582031 313.191406 239.632812 310.148438 236.589844 L 310.085938 236.527344 C 311.554688 233.480469 312.441406 230.09375 312.441406 226.488281 Z M 294.53125 220.976562 C 291.484375 217.929688 286.53125 217.929688 283.488281 220.976562 C 280.441406 224.019531 280.441406 228.96875 283.488281 232.015625 L 285.769531 234.292969 L 273.398438 234.292969 C 269.085938 234.292969 265.589844 230.796875 265.589844 226.488281 L 265.589844 195.261719 C 265.589844 190.949219 269.089844 187.453125 273.398438 187.453125 L 289.015625 187.453125 C 293.328125 187.453125 296.824219 190.949219 296.824219 195.261719 L 296.824219 223.269531 Z M 294.53125 220.976562 "/>
<path style=" stroke:none;fill-rule:nonzero;fill:rgb(100%,94.898987%,1.179504%);fill-opacity:1;" d="M 367.105469 234.292969 L 343.679688 234.292969 L 343.679688 179.644531 C 343.679688 175.335938 340.179688 171.839844 335.871094 171.839844 C 331.558594 171.839844 328.0625 175.335938 328.0625 179.644531 L 328.0625 242.101562 C 328.0625 246.410156 331.558594 249.90625 335.871094 249.90625 L 367.105469 249.90625 C 371.417969 249.90625 374.914062 246.410156 374.914062 242.101562 C 374.914062 237.792969 371.417969 234.292969 367.105469 234.292969 Z M 367.105469 234.292969 "/>
<path style=" stroke:none;fill-rule:nonzero;fill:rgb(100%,94.898987%,1.179504%);fill-opacity:1;" d="M 113.738281 280.308594 C 114.859375 280.871094 116.046875 281.136719 117.21875 281.136719 C 120.078125 281.136719 122.828125 279.558594 124.214844 276.808594 L 155.453125 214.355469 C 157.375 210.5 155.8125 205.816406 151.953125 203.878906 C 148.097656 201.957031 143.410156 203.503906 141.472656 207.375 L 132.835938 224.644531 L 124.199219 207.390625 C 122.265625 203.519531 117.59375 201.972656 113.722656 203.894531 C 109.863281 205.832031 108.285156 210.515625 110.222656 214.371094 L 124.089844 242.117188 L 110.222656 269.832031 C 108.316406 273.6875 109.878906 278.371094 113.738281 280.308594 Z M 113.738281 280.308594 "/>
<path style=" stroke:none;fill-rule:nonzero;fill:rgb(100%,94.898987%,1.179504%);fill-opacity:1;" d="M 85.984375 249.90625 C 90.292969 249.90625 93.792969 246.410156 93.792969 242.101562 L 93.792969 179.644531 C 93.792969 176.289062 91.636719 173.308594 88.453125 172.246094 C 85.265625 171.183594 81.75 172.277344 79.738281 174.960938 L 62.558594 197.851562 L 45.378906 174.960938 C 43.363281 172.261719 39.863281 171.183594 36.664062 172.246094 C 33.476562 173.308594 31.320312 176.289062 31.320312 179.644531 L 31.320312 242.101562 C 31.320312 246.410156 34.820312 249.90625 39.128906 249.90625 C 43.441406 249.90625 46.9375 246.410156 46.9375 242.101562 L 46.9375 203.066406 L 56.308594 215.558594 C 59.261719 219.492188 65.867188 219.492188 68.804688 215.558594 L 78.175781 203.066406 L 78.175781 242.101562 C 78.175781 246.410156 81.671875 249.90625 85.984375 249.90625 Z M 85.984375 249.90625 "/>
</g>
</svg>
