<?xml version="1.0" encoding="UTF-8"?>
<svg xmlns="http://www.w3.org/2000/svg" xmlns:xlink="http://www.w3.org/1999/xlink" width="375pt" height="374.999991pt" viewBox="0 0 375 374.999991" version="1.2">
  <defs>
    <clipPath id="clip1">
      <path d="M 14.296875 0 L 360.796875 0 L 360.796875 375 L 14.296875 375 Z M 14.296875 0 " />
    </clipPath>
  </defs>
  <g id="surface1">
    <g clip-path="url(#clip1)" clip-rule="nonzero">
      <path style=" stroke:none;fill-rule:nonzero;fill:rgb(100%,94.898987%,1.179504%);fill-opacity:1;" d="M 187.460938 0 C 182.195312 0 176.933594 1.292969 172.386719 3.886719 L 29.414062 86.398438 C 20.179688 91.734375 14.421875 101.839844 14.421875 112.511719 L 14.421875 262.207031 C 14.421875 273.023438 20.179688 282.984375 29.414062 288.320312 L 66.945312 309.957031 C 85.125 318.898438 91.605469 318.886719 99.828125 318.886719 C 126.808594 318.886719 142.238281 302.589844 142.238281 274.320312 L 142.238281 119.863281 C 142.238281 117.554688 140.375 115.667969 138.066406 115.667969 L 120.03125 115.667969 C 117.582031 115.667969 115.835938 117.554688 115.835938 119.863281 L 115.835938 274.179688 C 115.835938 286.871094 102.722656 299.273438 81.515625 288.742188 L 42.261719 266.09375 C 40.820312 265.375 39.953125 263.792969 39.953125 262.207031 L 39.953125 112.652344 C 39.953125 110.921875 40.820312 109.460938 42.261719 108.59375 L 185.234375 26.113281 C 186.535156 25.25 188.273438 25.25 189.714844 26.113281 L 332.691406 108.59375 C 334.132812 109.460938 335 110.925781 335 112.511719 L 335 262.207031 C 335 263.792969 334.128906 265.375 332.832031 266.09375 L 189.714844 348.746094 C 188.417969 349.464844 186.535156 349.464844 185.234375 348.746094 L 148.4375 326.96875 C 147.425781 326.25 146.007812 326.113281 145 326.6875 C 134.753906 332.457031 132.878906 333.175781 123.359375 336.492188 C 121.050781 337.210938 117.441406 338.652344 124.652344 342.6875 L 172.386719 370.972656 C 177.003906 373.566406 182.210938 375 187.40625 375 C 192.742188 375 197.921875 373.566406 202.539062 370.972656 L 345.679688 288.320312 C 354.914062 282.984375 360.671875 273.023438 360.671875 262.207031 L 360.671875 112.652344 C 360.671875 101.835938 354.914062 91.875 345.679688 86.539062 L 202.539062 3.886719 C 197.992188 1.292969 192.726562 0 187.460938 0 Z M 225.925781 115.46875 C 185.097656 115.46875 160.722656 132.765625 160.722656 161.613281 C 160.722656 192.910156 184.9375 201.550781 224.179688 205.445312 C 271.066406 210.058594 274.671875 217.003906 274.671875 226.234375 C 274.671875 242.097656 261.855469 248.882812 231.703125 248.882812 C 193.757812 248.882812 185.386719 239.351562 182.644531 220.601562 C 182.355469 218.582031 180.632812 217.136719 178.613281 217.136719 L 159.988281 217.136719 C 157.679688 217.136719 155.960938 219.027344 155.960938 221.191406 C 155.960938 245.277344 169.089844 273.953125 231.703125 273.953125 C 277.003906 273.953125 302.960938 256.09375 302.960938 224.9375 C 302.960938 194.074219 282.039062 185.835938 238.183594 179.921875 C 193.601562 174.152344 189.125 171.121094 189.125 160.738281 C 189.125 152.085938 193.03125 140.710938 225.925781 140.710938 C 255.210938 140.710938 266.171875 147.035156 270.644531 166.796875 C 271.074219 168.671875 272.652344 170.117188 274.671875 170.117188 L 293.296875 170.117188 C 294.453125 170.117188 295.445312 169.546875 296.3125 168.683594 C 297.035156 167.960938 297.472656 166.796875 297.328125 165.5 C 294.441406 131.460938 271.800781 115.46875 225.925781 115.46875 Z M 225.925781 115.46875 " />
    </g>
  </g>
</svg>
