<?xml version="1.0" encoding="UTF-8"?>
<svg xmlns="http://www.w3.org/2000/svg" xmlns:xlink="http://www.w3.org/1999/xlink" width="375pt" height="374.999991pt" viewBox="0 0 375 374.999991" version="1.2">
<g id="surface1">
<path style=" stroke:none;fill-rule:evenodd;fill:rgb(100%,94.898987%,1.179504%);fill-opacity:1;" d="M 264.792969 17.089844 C 258.484375 16.875 251.882812 17.976562 245.265625 20.121094 C 232.027344 24.410156 218.152344 32.769531 203.917969 44.34375 C 198.335938 48.878906 192.707031 54.066406 187.058594 59.566406 C 181.53125 54.203125 176.019531 49.160156 170.5625 44.722656 C 156.335938 33.15625 142.5 24.796875 129.292969 20.515625 C 116.085938 16.234375 102.941406 16.101562 92.148438 22.332031 C 81.355469 28.558594 74.898438 39.992188 72.003906 53.566406 C 69.105469 67.140625 69.425781 83.300781 72.335938 101.398438 C 73.34375 107.683594 74.785156 114.277344 76.425781 120.996094 C 70.257812 122.863281 64.269531 124.828125 58.714844 126.996094 C 41.953125 133.539062 28.082031 141.367188 17.984375 150.683594 C 7.882812 159.996094 1.363281 171.304688 1.363281 183.71875 C 1.363281 196.132812 7.882812 207.421875 17.984375 216.738281 C 28.082031 226.050781 41.953125 233.894531 58.714844 240.441406 C 64.65625 242.757812 71.085938 244.84375 77.722656 246.820312 C 75.335938 255.734375 73.398438 264.386719 72.082031 272.589844 C 69.171875 290.699219 68.863281 306.867188 71.765625 320.46875 C 74.667969 334.074219 81.125 345.570312 91.972656 351.832031 C 102.820312 358.089844 116.023438 357.9375 129.261719 353.648438 C 142.5 349.355469 156.355469 341.011719 170.59375 329.4375 C 176.121094 324.945312 181.714844 319.816406 187.308594 314.375 C 192.9375 319.851562 198.550781 325 204.105469 329.519531 C 218.332031 341.082031 232.183594 349.429688 245.390625 353.710938 C 258.597656 357.988281 271.742188 358.121094 282.535156 351.894531 C 293.332031 345.664062 299.769531 334.230469 302.664062 320.660156 C 305.5625 307.085938 305.242188 290.9375 302.332031 272.84375 C 301.011719 264.617188 299.074219 255.9375 296.675781 246.992188 C 303.535156 244.972656 310.167969 242.828125 316.285156 240.441406 C 333.046875 233.894531 346.917969 226.050781 357.015625 216.738281 C 367.117188 207.421875 373.636719 196.132812 373.636719 183.71875 C 373.636719 171.304688 367.117188 159.996094 357.015625 150.683594 C 346.917969 141.367188 333.046875 133.539062 316.285156 126.996094 C 310.652344 124.796875 304.570312 122.804688 298.304688 120.914062 C 299.957031 114.15625 301.429688 107.515625 302.445312 101.191406 C 305.355469 83.082031 305.664062 66.902344 302.761719 53.296875 C 299.859375 39.695312 293.382812 28.210938 282.535156 21.953125 C 277.113281 18.824219 271.101562 17.300781 264.792969 17.089844 Z M 264.050781 33.542969 C 268.007812 33.652344 271.382812 34.59375 274.273438 36.257812 C 280.050781 39.59375 284.320312 46.078125 286.597656 56.757812 C 288.875 67.433594 288.796875 81.859375 286.105469 98.585938 C 285.1875 104.316406 283.851562 110.386719 282.332031 116.605469 C 265.785156 112.625 247.652344 109.671875 228.328125 107.933594 C 218.625 94.503906 208.65625 82.265625 198.605469 71.410156 C 203.921875 66.222656 209.203125 61.375 214.359375 57.183594 C 227.511719 46.492188 239.960938 39.214844 250.351562 35.847656 C 255.546875 34.164062 260.09375 33.433594 264.050781 33.542969 Z M 110.539062 33.589844 C 114.519531 33.480469 119.074219 34.207031 124.285156 35.894531 C 134.703125 39.273438 147.175781 46.542969 160.339844 57.246094 C 165.390625 61.351562 170.554688 66.109375 175.761719 71.171875 C 165.636719 82.117188 155.585938 94.460938 145.820312 108.015625 C 126.578125 109.78125 108.519531 112.75 92.054688 116.746094 C 90.546875 110.5625 89.207031 104.523438 88.292969 98.824219 C 85.601562 82.082031 85.535156 67.652344 87.820312 56.945312 C 90.101562 46.238281 94.40625 39.703125 100.238281 36.339844 C 103.152344 34.65625 106.558594 33.703125 110.539062 33.589844 Z M 187.308594 83.046875 C 193.898438 90.214844 200.492188 98.058594 207.027344 106.5 C 200.605469 106.230469 194.101562 106.070312 187.5 106.070312 C 180.765625 106.070312 174.140625 106.234375 167.59375 106.515625 C 174.128906 98.066406 180.71875 90.222656 187.308594 83.046875 Z M 187.5 122.398438 C 198.5 122.398438 209.222656 122.851562 219.652344 123.617188 C 226.828125 133.917969 233.84375 144.847656 240.523438 156.414062 C 246.394531 166.578125 251.710938 176.726562 256.546875 186.75 C 251.660156 196.90625 246.253906 207.191406 240.304688 217.496094 C 235.0625 226.566406 229.589844 235.179688 224.03125 243.488281 C 212.25 244.472656 200.042969 245.019531 187.5 245.019531 C 174.65625 245.019531 162.175781 244.4375 150.132812 243.410156 C 144.664062 235.222656 139.285156 226.738281 134.128906 217.8125 C 128.1875 207.53125 122.8125 197.261719 117.933594 187.128906 C 122.832031 176.9375 128.234375 166.613281 134.207031 156.273438 C 140.855469 144.765625 147.847656 133.898438 154.984375 123.648438 C 165.527344 122.867188 176.371094 122.398438 187.5 122.398438 Z M 240.476562 125.636719 C 253.8125 127.300781 266.332031 129.609375 277.984375 132.378906 C 274.527344 143.707031 270.269531 155.542969 265.109375 167.753906 C 261.757812 161.296875 258.289062 154.820312 254.539062 148.328125 C 249.996094 140.464844 245.261719 132.964844 240.476562 125.636719 Z M 133.652344 125.761719 C 128.96875 132.953125 124.359375 140.308594 119.90625 148.011719 C 116.109375 154.585938 112.570312 161.152344 109.179688 167.6875 C 104.0625 155.550781 99.832031 143.785156 96.398438 132.523438 C 107.964844 129.746094 120.410156 127.445312 133.652344 125.761719 Z M 293.992188 136.675781 C 299.726562 138.410156 305.265625 140.21875 310.34375 142.203125 C 325.796875 148.234375 338.019531 155.378906 345.941406 162.683594 C 353.863281 169.988281 357.300781 176.957031 357.300781 183.71875 C 357.300781 190.476562 353.863281 197.445312 345.941406 204.75 C 338.019531 212.058594 325.796875 219.199219 310.34375 225.234375 C 304.699219 227.4375 298.496094 229.433594 292.046875 231.328125 C 287.449219 217.109375 281.578125 202.273438 274.589844 187.128906 C 282.625 169.742188 289.113281 152.789062 293.992188 136.675781 Z M 80.738281 136.753906 C 85.5625 152.707031 91.96875 169.492188 99.890625 186.703125 C 92.855469 201.933594 86.957031 216.855469 82.335938 231.152344 C 76.113281 229.3125 70.121094 227.367188 64.65625 225.234375 C 49.203125 219.199219 36.980469 212.058594 29.058594 204.75 C 21.136719 197.445312 17.699219 190.476562 17.699219 183.71875 C 17.699219 176.957031 21.136719 169.988281 29.058594 162.683594 C 36.980469 155.378906 49.203125 148.234375 64.65625 142.203125 C 69.65625 140.25 75.101562 138.464844 80.738281 136.753906 Z M 187.5 146.578125 C 165.257812 146.578125 147.050781 164.769531 147.050781 187.003906 C 147.050781 209.234375 165.257812 227.425781 187.5 227.425781 C 209.742188 227.425781 227.949219 209.234375 227.949219 187.003906 C 227.949219 164.769531 209.742188 146.578125 187.5 146.578125 Z M 109.371094 206.125 C 112.773438 212.695312 116.3125 219.289062 120.128906 225.894531 C 123.117188 231.066406 126.164062 236.097656 129.261719 241.039062 C 118.398438 239.535156 108.070312 237.628906 98.371094 235.371094 C 101.457031 225.929688 105.144531 216.132812 109.371094 206.125 Z M 265.3125 206.125 C 269.554688 216.15625 273.246094 225.96875 276.34375 235.433594 C 266.613281 237.6875 256.253906 239.589844 245.359375 241.085938 C 248.496094 236.085938 251.59375 230.988281 254.617188 225.753906 C 258.40625 219.195312 261.933594 212.648438 265.3125 206.125 Z M 93.710938 251.066406 C 108.351562 254.535156 124.222656 257.195312 141.046875 258.929688 C 152.28125 275.167969 163.984375 289.757812 175.761719 302.515625 C 170.496094 307.648438 165.273438 312.464844 160.167969 316.617188 C 147.015625 327.308594 134.546875 334.566406 124.160156 337.933594 C 113.769531 341.300781 106.011719 340.855469 100.238281 337.523438 C 94.460938 334.191406 90.207031 327.703125 87.929688 317.027344 C 85.652344 306.351562 85.714844 291.941406 88.402344 275.210938 C 89.621094 267.621094 91.445312 259.496094 93.710938 251.066406 Z M 281.019531 251.128906 C 283.304688 259.609375 285.132812 267.765625 286.359375 275.402344 C 289.050781 292.144531 289.117188 306.570312 286.832031 317.28125 C 284.550781 327.988281 280.277344 334.539062 274.445312 337.902344 C 268.617188 341.265625 260.789062 341.707031 250.367188 338.328125 C 239.949219 334.953125 227.476562 327.679688 214.3125 316.980469 C 209.167969 312.796875 203.910156 307.941406 198.605469 302.765625 C 210.464844 289.960938 222.25 275.296875 233.554688 258.960938 C 250.425781 257.238281 266.339844 254.59375 281.019531 251.128906 Z M 162.15625 260.589844 C 170.464844 261.042969 178.878906 261.347656 187.5 261.347656 C 195.835938 261.347656 203.980469 261.058594 212.019531 260.636719 C 203.800781 271.722656 195.421875 281.800781 187.074219 290.875 C 178.730469 281.78125 170.367188 271.683594 162.15625 260.589844 Z M 162.15625 260.589844 "/>
</g>
</svg>
