<?xml version="1.0" encoding="UTF-8"?>
<svg xmlns="http://www.w3.org/2000/svg" xmlns:xlink="http://www.w3.org/1999/xlink" width="375pt" height="374.999991pt" viewBox="0 0 375 374.999991" version="1.2">
<g id="surface1">
<path style=" stroke:none;fill-rule:evenodd;fill:rgb(100%,94.898987%,1.179504%);fill-opacity:1;" d="M 187.425781 0.300781 C 291.023438 0.300781 375 84.277344 375 187.875 C 375 291.464844 291.023438 375.449219 187.425781 375.449219 C 83.835938 375.449219 -0.148438 291.476562 -0.148438 187.875 C -0.140625 84.277344 83.835938 0.300781 187.425781 0.300781 Z M 187.425781 0.300781 "/>
<path style=" stroke:none;fill-rule:nonzero;fill:rgb(100%,100%,100%);fill-opacity:1;" d="M 305.085938 80.582031 C 296.589844 47.265625 241.351562 36.316406 189.078125 54.886719 C 157.96875 65.941406 124.285156 83.289062 100.066406 105.941406 C 71.269531 132.875 66.683594 156.316406 68.570312 166.109375 C 75.246094 200.667969 122.601562 223.261719 142.066406 240.027344 L 142.066406 240.132812 C 136.324219 242.960938 94.3125 264.21875 84.484375 285.957031 C 74.105469 308.890625 86.136719 325.347656 94.097656 327.566406 C 118.769531 334.425781 144.078125 322.085938 157.6875 301.796875 C 170.816406 282.207031 169.726562 256.925781 164.023438 244.34375 C 171.890625 242.265625 181.070312 241.335938 192.726562 242.699219 C 225.628906 246.542969 232.085938 267.085938 230.847656 275.6875 C 229.613281 284.285156 222.707031 289.011719 220.402344 290.441406 C 218.09375 291.871094 217.398438 292.367188 217.585938 293.421875 C 217.867188 294.960938 218.929688 294.90625 220.902344 294.578125 C 223.609375 294.117188 238.175781 287.585938 238.804688 271.710938 C 239.597656 251.558594 220.292969 229.023438 186.101562 229.605469 C 172.019531 229.847656 163.167969 231.183594 156.765625 233.570312 C 156.296875 233.035156 155.808594 232.5 155.320312 231.964844 C 134.183594 209.40625 95.101562 193.457031 96.757812 163.140625 C 97.359375 152.113281 101.195312 123.09375 171.84375 87.886719 C 229.71875 59.042969 276.050781 66.984375 284.058594 84.566406 C 295.5 109.699219 259.296875 156.398438 199.191406 163.140625 C 176.289062 165.703125 164.230469 156.832031 161.230469 153.523438 C 158.074219 150.046875 157.601562 149.886719 156.429688 150.546875 C 154.511719 151.605469 155.722656 154.679688 156.429688 156.511719 C 158.222656 161.183594 165.59375 169.464844 178.140625 173.589844 C 189.183594 177.21875 216.070312 179.199219 248.589844 166.625 C 285 152.527344 313.441406 113.335938 305.085938 80.582031 Z M 150.148438 250.355469 C 152.875 260.449219 152.574219 269.867188 149.765625 278.394531 C 149.453125 279.34375 149.105469 280.273438 148.730469 281.203125 C 148.355469 282.125 147.949219 283.046875 147.519531 283.949219 C 145.347656 288.457031 142.425781 292.679688 138.851562 296.578125 C 127.949219 308.46875 112.726562 312.960938 106.203125 309.171875 C 99.152344 305.085938 102.6875 288.328125 115.320312 274.960938 C 128.910156 260.59375 148.46875 251.351562 148.46875 251.351562 L 148.441406 251.296875 C 149.003906 250.988281 149.578125 250.675781 150.148438 250.355469 Z M 150.148438 250.355469 "/>
</g>
</svg>
